<svg width="879" height="700" viewBox="0 0 879 700" fill="none" xmlns="http://www.w3.org/2000/svg">
<g clip-path="url(#clip0_1011_87)">
<path d="M96.9037 91.4804C95.2463 43.8873 132.327 0 182.45 0H696.045C746.167 0 783.249 43.8873 781.591 91.4804C779.999 137.198 782.066 196.42 796.971 244.708C811.923 293.146 837.137 323.762 878.431 327.696V372.304C837.137 376.238 811.923 406.854 796.971 455.292C782.066 503.58 779.999 562.802 781.591 608.521C783.249 656.113 746.167 700 696.045 700H182.45C132.327 700 95.2463 656.113 96.9054 608.521C98.4958 562.802 96.4284 503.58 81.5225 455.292C66.5721 406.854 41.2966 376.238 0 372.304V327.696C41.2949 323.762 66.5721 293.146 81.5225 244.708C96.4284 196.42 98.4958 137.198 96.9037 91.4804Z" fill="url(#paint0_linear_1011_87)"/>
<g filter="url(#filter0_d_1011_87)">
<path d="M458.265 536.078C539.412 536.078 588.311 496.346 588.311 430.812C588.311 381.275 553.421 345.412 501.614 339.735V337.671C539.676 331.479 569.545 296.133 569.545 256.658C569.545 200.413 525.139 163.774 457.473 163.774H305.223V536.078H458.265ZM364.431 210.99H443.2C486.02 210.99 510.336 230.082 510.336 264.655C510.336 301.551 482.055 322.19 430.777 322.19H364.431V210.99ZM364.431 488.864V366.311H442.67C498.706 366.311 527.782 386.951 527.782 427.201C527.782 467.449 499.5 488.864 446.106 488.864H364.431Z" fill="url(#paint1_linear_1011_87)"/>
<path d="M458.265 536.078C539.412 536.078 588.311 496.346 588.311 430.812C588.311 381.275 553.421 345.412 501.614 339.735V337.671C539.676 331.479 569.545 296.133 569.545 256.658C569.545 200.413 525.139 163.774 457.473 163.774H305.223V536.078H458.265ZM364.431 210.99H443.2C486.02 210.99 510.336 230.082 510.336 264.655C510.336 301.551 482.055 322.19 430.777 322.19H364.431V210.99ZM364.431 488.864V366.311H442.67C498.706 366.311 527.782 386.951 527.782 427.201C527.782 467.449 499.5 488.864 446.106 488.864H364.431Z" stroke="white"/>
</g>
</g>
<defs>
<filter id="filter0_d_1011_87" x="288.723" y="151.274" width="316.09" height="405.304" filterUnits="userSpaceOnUse" color-interpolation-filters="sRGB">
<feFlood flood-opacity="0" result="BackgroundImageFix"/>
<feColorMatrix in="SourceAlpha" type="matrix" values="0 0 0 0 0 0 0 0 0 0 0 0 0 0 0 0 0 0 127 0" result="hardAlpha"/>
<feOffset dy="4"/>
<feGaussianBlur stdDeviation="8"/>
<feColorMatrix type="matrix" values="0 0 0 0 0 0 0 0 0 0 0 0 0 0 0 0 0 0 0.15 0"/>
<feBlend mode="normal" in2="BackgroundImageFix" result="effect1_dropShadow_1011_87"/>
<feBlend mode="normal" in="SourceGraphic" in2="effect1_dropShadow_1011_87" result="shape"/>
</filter>
<linearGradient id="paint0_linear_1011_87" x1="130.528" y1="18.526" x2="898.127" y2="627.847" gradientUnits="userSpaceOnUse">
<stop stop-color="#9013FE"/>
<stop offset="1" stop-color="#6610F2"/>
</linearGradient>
<linearGradient id="paint1_linear_1011_87" x1="331.999" y1="188.279" x2="503.578" y2="478.457" gradientUnits="userSpaceOnUse">
<stop stop-color="white"/>
<stop offset="1" stop-color="#F1E5FC"/>
</linearGradient>
<clipPath id="clip0_1011_87">
<rect width="878.431" height="700" fill="white"/>
</clipPath>
</defs>
</svg>
