<svg width="800" height="800" viewBox="0 0 800 800" fill="none" xmlns="http://www.w3.org/2000/svg">
<g clip-path="url(#clip0_1011_96)">
<path d="M283.714 750C348.114 750 400.38 697.733 400.38 633.333V516.667H283.714C219.314 516.667 167.047 568.933 167.047 633.333C167.047 697.733 219.314 750 283.714 750Z" fill="#0ACF83"/>
<path d="M167.047 400C167.047 335.6 219.314 283.333 283.714 283.333H400.38V516.667H283.714C219.314 516.667 167.047 464.4 167.047 400Z" fill="#A259FF"/>
<path d="M167.047 166.667C167.047 102.267 219.314 50 283.714 50H400.38V283.333H283.714C219.314 283.333 167.047 231.067 167.047 166.667Z" fill="#F24E1E"/>
<path d="M400.379 50H517.046C581.446 50 633.712 102.267 633.712 166.667C633.712 231.067 581.446 283.333 517.046 283.333H400.379V50Z" fill="#FF7262"/>
<path d="M633.712 400C633.712 464.4 581.446 516.667 517.046 516.667C452.646 516.667 400.379 464.4 400.379 400C400.379 335.6 452.646 283.333 517.046 283.333C581.446 283.333 633.712 335.6 633.712 400Z" fill="#1ABCFE"/>
</g>
<defs>
<clipPath id="clip0_1011_96">
<rect width="466.76" height="700" fill="white" transform="translate(167 50)"/>
</clipPath>
</defs>
</svg>
