<svg width="700" height="700" viewBox="0 0 700 700" fill="none" xmlns="http://www.w3.org/2000/svg">
<path d="M669.042 320.47L379.524 30.966C362.854 14.2887 335.814 14.2887 319.129 30.966L259.016 91.0938L335.272 167.351C352.996 161.361 373.318 165.38 387.44 179.51C401.65 193.727 405.633 214.222 399.492 232.01L472.999 305.51C490.788 299.376 511.297 303.345 525.499 317.569C545.344 337.414 545.344 369.571 525.499 389.431C505.639 409.284 473.483 409.284 453.616 389.431C438.692 374.493 434.997 352.555 442.567 334.167L374.01 265.618V446.008C378.845 448.404 383.414 451.594 387.44 455.621C407.286 475.466 407.286 507.623 387.44 527.49C367.595 547.328 335.417 547.328 315.586 527.49C295.74 507.616 295.74 475.459 315.586 455.621C320.493 450.721 326.172 447.011 332.234 444.529V262.457C326.172 259.974 320.507 256.301 315.586 251.365C300.554 236.34 296.938 214.272 304.645 195.812L229.471 120.624L30.9455 319.128C14.2682 335.82 14.2682 362.86 30.9455 379.537L320.478 669.049C337.149 685.726 364.182 685.726 380.873 669.049L669.042 380.879C685.72 364.202 685.72 337.147 669.042 320.47Z" fill="#F05133"/>
</svg>
