<svg width="800" height="800" viewBox="0 0 800 800" fill="none" xmlns="http://www.w3.org/2000/svg">
<g clip-path="url(#clip0_1012_103)">
<path d="M202.305 646.105H171.057C169.952 593.361 166.909 543.776 161.933 497.312H161.656L114.081 646.105H90.2903L42.9992 497.312H42.7275C39.2193 541.922 37.0093 591.52 36.0915 646.105H7.60938C9.44499 579.727 14.0582 517.498 21.4308 459.41H60.1598L105.235 596.592H105.513L150.865 459.41H187.922C196.037 527.448 200.831 589.684 202.305 646.105ZM337.82 508.362C325.097 577.402 308.311 627.568 287.48 658.882C271.249 682.986 253.466 695.051 234.102 695.051C228.939 695.051 222.569 693.493 215.021 690.401V673.754C218.711 674.285 223.04 674.587 228.015 674.587C237.061 674.587 244.331 672.099 249.874 667.112C256.504 661.037 259.819 654.208 259.819 646.654C259.819 641.474 257.234 630.883 252.078 614.845L217.787 508.356H248.485L273.097 587.999C278.628 606.084 280.934 618.71 280.01 625.901C293.469 589.956 302.871 550.762 308.227 508.35H337.82V508.362Z" fill="#5D87A1"/>
<path d="M753.763 646.105H665.002V459.41H694.861V623.123H753.763V646.105ZM641.767 650.615L607.446 633.678C610.489 631.178 613.4 628.473 616.02 625.339C630.608 608.203 637.885 582.861 637.885 549.294C637.885 487.53 613.647 456.632 565.155 456.632C541.376 456.632 522.827 464.47 509.561 480.151C494.985 497.3 487.709 522.551 487.709 555.936C487.709 588.754 494.157 612.828 507.061 628.099C518.866 641.932 536.66 648.858 560.457 648.858C569.333 648.858 577.478 647.771 584.899 645.579L629.582 671.592L641.767 650.615ZM530.586 608.746C523.026 596.586 519.246 577.058 519.246 550.134C519.246 503.126 533.526 479.596 562.117 479.596C577.062 479.596 588.015 485.223 595.019 496.454C602.567 508.633 606.365 527.986 606.365 554.536C606.365 601.929 592.073 625.629 563.5 625.629C548.549 625.635 537.596 620.026 530.586 608.746ZM474.696 594.357C474.696 610.19 468.888 623.178 457.282 633.352C445.665 643.484 430.086 648.562 410.565 648.562C392.305 648.562 374.601 642.729 357.465 631.124L365.49 615.093C380.235 622.477 393.585 626.149 405.571 626.149C416.82 626.149 425.612 623.655 431.988 618.709C438.359 613.746 442.157 606.784 442.157 597.98C442.157 586.888 434.422 577.408 420.232 569.468C407.147 562.283 380.978 547.26 380.978 547.26C366.794 536.922 359.693 525.824 359.693 507.54C359.693 492.409 364.988 480.193 375.585 470.901C386.195 461.572 399.883 456.922 416.663 456.922C433.993 456.922 449.747 461.566 463.936 470.756L456.739 486.793C444.602 481.636 432.622 479.058 420.805 479.058C411.235 479.058 403.844 481.359 398.706 485.978C393.525 490.579 390.331 496.466 390.331 503.688C390.331 514.726 398.229 524.326 412.805 532.424C426.065 539.621 452.886 554.904 452.886 554.904C467.432 565.223 474.696 576.219 474.696 594.357Z" fill="#F8981D"/>
<path d="M791.248 396.878C773.194 396.419 759.216 398.237 747.484 403.2C744.096 404.553 738.71 404.553 738.239 408.834C740.069 410.645 740.28 413.568 741.868 416.067C744.573 420.578 749.289 426.646 753.594 429.81C758.322 433.433 763.068 437.02 768.044 440.178C776.817 445.606 786.762 448.764 795.312 454.174C800.294 457.32 805.245 461.39 810.233 464.778C812.684 466.583 814.254 469.511 817.436 470.641V469.952C815.842 467.923 815.389 464.989 813.825 462.731L807.05 456.197C800.505 447.406 792.372 439.731 783.598 433.427C776.376 428.452 760.581 421.689 757.652 413.368L757.193 412.909C762.156 412.445 768.044 410.645 772.76 409.262C780.434 407.24 787.432 407.698 795.306 405.676C798.929 404.77 802.522 403.635 806.157 402.518V400.483C802.075 396.419 799.165 391.021 794.871 387.181C783.387 377.26 770.731 367.557 757.652 359.435C750.648 354.913 741.639 352.002 734.182 348.156C731.495 346.797 726.966 346.127 725.384 343.869C721.338 338.905 719.062 332.372 716.127 326.497C709.606 314.1 703.272 300.345 697.644 287.237C693.575 278.445 691.099 269.665 686.136 261.532C662.889 223.189 637.643 199.967 598.842 177.172C590.503 172.426 580.582 170.404 569.985 167.916L553.06 167.022C549.449 165.44 545.832 161.147 542.68 159.118C529.807 151.003 496.663 133.414 487.195 156.637C481.097 171.315 496.216 185.747 501.409 193.192C505.244 198.36 510.213 204.242 512.894 210.111C514.482 213.945 514.929 218.015 516.517 222.066C520.128 231.993 523.503 243.037 528.249 252.3C530.725 257.021 533.424 261.985 536.588 266.26C538.399 268.76 541.551 269.865 542.24 273.94C539.094 278.433 538.846 285.214 537.041 290.853C528.925 316.341 532.095 347.914 543.598 366.645C547.197 372.285 555.783 384.699 567.268 379.941C577.436 375.883 575.184 363.028 578.106 351.755C578.777 349.031 578.336 347.244 579.688 345.457V345.898C582.834 352.208 586.01 358.288 588.927 364.616C595.925 375.66 608.11 387.169 618.26 394.819C623.665 398.901 627.946 405.881 634.714 408.375V407.698H634.268C632.897 405.676 630.892 404.77 629.093 403.2C625.023 399.136 620.519 394.173 617.361 389.668C607.905 377.031 599.536 363.04 592.109 348.603C588.474 341.598 585.34 333.942 582.412 326.95C581.047 324.251 581.047 320.181 578.783 318.822C575.389 323.78 570.444 328.073 567.968 334.147C563.675 343.863 563.228 355.812 561.634 368.239L560.747 368.674C553.561 366.868 551.061 359.435 548.332 353.125C541.575 337.1 540.44 311.377 546.303 292.888C547.873 288.16 554.666 273.27 551.955 268.766C550.596 264.448 546.08 261.991 543.604 258.591C540.694 254.316 537.506 248.906 535.477 244.16C530.067 231.534 527.343 217.544 521.516 204.924C518.793 199.043 514.065 192.956 510.237 187.54C505.938 181.454 501.21 177.166 497.81 169.951C496.687 167.469 495.111 163.411 496.917 160.712C497.358 158.901 498.275 158.225 500.075 157.772C502.997 155.302 511.348 158.442 514.277 159.801C522.64 163.182 529.632 166.34 536.612 171.074C539.77 173.338 543.157 177.625 547.209 178.754H551.955C559.159 180.324 567.28 179.189 574.061 181.23C586.01 185.07 596.837 190.704 606.546 196.784C636.091 215.521 660.455 242.143 676.903 273.94C679.602 279.121 680.75 283.867 683.213 289.271C687.965 300.333 693.84 311.613 698.556 322.439C703.296 333.036 707.813 343.857 714.582 352.66C717.957 357.394 731.519 359.876 737.599 362.358C742.098 364.381 749.102 366.18 753.16 368.662C760.834 373.39 768.479 378.818 775.694 384.017C779.287 386.722 790.578 392.361 791.248 396.878ZM561.157 200.854C558.043 200.822 554.938 201.204 551.925 201.989V202.442H552.36C554.177 206.047 557.335 208.547 559.587 211.693C561.405 215.31 562.981 218.896 564.762 222.507L565.197 222.06C568.379 219.808 569.961 216.197 569.961 210.781C568.59 209.187 568.379 207.629 567.238 206.047C565.909 203.789 562.981 202.666 561.157 200.854Z" fill="#5D87A1"/>
<path d="M812.729 646.075H817.402V623.202H810.392L804.674 638.811L798.46 623.202H791.71V646.075H796.124V628.672H796.371L802.88 646.075H806.244L812.729 628.672V646.075ZM775.081 646.075H780.026V627.078H786.499V623.196H768.336V627.078H775.068L775.081 646.075Z" fill="#F8981D"/>
</g>
<defs>
<clipPath id="clip0_1012_103">
<rect width="800" height="800" fill="white"/>
</clipPath>
</defs>
</svg>
