<svg width="800" height="800" viewBox="0 0 800 800" fill="none" xmlns="http://www.w3.org/2000/svg">
<path d="M429.312 57.468C411.567 47.4882 388.432 47.533 370.672 57.468C281.722 106.557 192.77 155.66 103.804 204.726C86.4922 213.834 74.8159 232.424 75.0022 251.72V548.32C74.8772 567.992 87.1554 586.762 104.914 595.745C130.468 609.34 155.295 624.315 181.311 637.005C211.363 651.772 248.961 655.038 279.38 639.638C304.072 626.875 315.04 598.487 315.007 572.4C315.207 474.515 315.04 376.627 315.085 278.74C315.672 274.39 312.405 269.74 307.66 269.845C296.292 269.665 284.91 269.74 273.542 269.815C269.247 269.41 265.055 272.977 265.38 277.295C265.227 374.55 265.41 471.835 265.287 569.105C265.535 582.56 256.445 595.49 243.478 600.035C213.53 610.532 128.049 555.03 128.049 555.03C124.912 553.577 122.92 550.175 123.228 546.795C123.228 448.94 123.243 351.082 123.228 253.242C122.797 249.298 125.228 245.745 128.85 244.134C217.508 195.335 306.12 146.413 394.777 97.584C397.857 95.5287 402.15 95.535 405.222 97.599C493.88 146.413 582.507 195.29 671.18 244.092C674.815 245.7 677.142 249.312 676.772 253.242C676.757 351.082 676.802 448.94 676.742 546.782C677.005 550.245 675.215 553.6 671.982 555.12C584.152 603.655 495.322 650.625 408.287 700.57C404.49 702.747 400.187 705.215 395.932 702.815C373.045 690.155 350.435 677.002 327.622 664.22C325.142 662.672 321.985 662.008 319.397 663.74C309.17 669.13 299.55 673.495 287.805 678.145C271.31 684.675 273.945 687.345 288.822 696.012C315.5 711.11 342.222 726.147 368.9 741.26C386.462 752.22 410.06 753 428.187 742.872C517.152 693.845 606.09 644.76 695.072 595.732C712.782 586.7 725.122 568.005 724.997 548.317V251.72C725.17 232.816 713.94 214.557 697.15 205.315C607.89 155.987 518.587 106.766 429.312 57.468Z" fill="#8CC84B"/>
<path d="M563.549 280.155C528.631 261.475 487.091 260.48 448.289 262.923C420.256 265.693 390.774 273.428 370.351 293.523C349.404 313.723 344.844 346.342 354.794 372.712C361.924 391.347 379.871 403.465 398.431 409.875C422.339 418.315 447.449 420.925 472.566 423.535C495.476 425.915 518.394 428.297 540.414 435.105C549.409 438.085 559.884 442.645 562.639 452.432C565.184 464.022 562.394 477.495 552.984 485.548C523.094 509.205 439.949 505.58 410.416 486.96C398.476 479.027 393.331 464.985 391.239 451.603C391.006 447.433 387.649 443.607 383.121 443.925C371.784 443.79 360.446 443.82 349.109 443.91C345.154 443.577 341.041 446.393 340.824 450.43C338.494 511.723 394.786 538.443 447.599 544.325C477.771 547.2 508.606 547.035 538.319 540.56C560.654 535.475 583.049 526.11 598.424 508.908C617.384 488 621.111 456.873 612.609 430.83C606.109 411.398 587.531 398.932 568.541 392.52C542.716 383.665 512.111 378.905 488.721 376.677C454.724 373.44 414.324 374.762 404.701 352.423C400.864 340.725 404.129 326.2 414.879 319.005C443.321 299.712 501.209 302.275 530.664 316.687C544.189 323.46 552.026 337.37 555.261 351.413C555.861 355.538 558.636 359.843 563.411 359.663C574.671 359.888 585.931 359.722 597.189 359.737C601.056 360.007 605.291 357.825 606.046 353.865C605.569 324.515 590.581 294.47 563.549 280.155Z" fill="#8CC84B"/>
</svg>
