<svg width="800" height="800" viewBox="0 0 800 800" fill="none" xmlns="http://www.w3.org/2000/svg">
<path d="M400 609.688C620.914 609.688 800 515.527 800 399.375C800 283.223 620.914 189.062 400 189.062C179.086 189.062 0 283.223 0 399.375C0 515.527 179.086 609.688 400 609.688Z" fill="url(#paint0_radial_1008_24)"/>
<path d="M400 594.063C612.284 594.063 784.375 506.898 784.375 399.375C784.375 291.852 612.284 204.688 400 204.688C187.716 204.688 15.625 291.852 15.625 399.375C15.625 506.898 187.716 594.063 400 594.063Z" fill="#6181B6"/>
<path d="M477.812 462.5L496.874 364.375C501.249 342.188 497.499 325.625 486.249 315.313C475.312 305.313 456.562 300.312 429.062 300.312H395.937L405.312 251.562C405.624 249.687 405.312 247.812 404.062 246.25C402.812 244.687 401.249 244.062 399.374 244.062H353.749C350.624 244.062 348.124 246.25 347.499 249.063L327.187 353.125C325.312 341.25 320.937 331.25 313.437 323.125C299.999 307.813 279.062 300 250.624 300H162.812C159.687 300 157.187 302.187 156.562 305L115.624 516.25C115.312 518.125 115.624 520 116.874 521.563C118.124 523.125 119.687 523.75 121.562 523.75H167.499C170.624 523.75 173.124 521.563 173.749 518.75L183.749 467.812H217.812C235.624 467.812 250.937 465.938 262.499 462.188C274.687 458.125 285.624 451.563 295.312 442.5C303.124 435.313 309.687 427.188 314.687 418.438L306.562 460.625C306.249 462.5 306.562 464.375 307.812 465.938C309.062 467.5 310.624 468.125 312.499 468.125H358.124C361.249 468.125 363.749 465.937 364.374 463.125L386.874 347.5H418.124C431.562 347.5 435.312 350 436.562 351.25C437.499 352.188 439.374 355.937 437.187 367.5L419.062 460.938C418.749 462.813 419.062 464.687 420.312 466.25C421.562 467.812 423.124 468.438 424.999 468.438H471.874C474.687 467.5 477.187 465.313 477.812 462.5ZM266.562 381.25C263.749 395.938 258.437 406.563 250.624 412.5C242.812 418.438 229.999 421.563 213.124 421.563H192.812L207.499 345.937H233.749C253.124 345.937 260.937 350 264.062 353.438C268.124 358.438 269.062 368.125 266.562 381.25Z" fill="white"/>
<path d="M672.812 323.125C659.374 307.813 638.437 300 609.999 300H521.562C518.437 300 515.937 302.187 515.312 305L474.374 515.937C474.062 517.812 474.374 519.688 475.624 521.25C476.874 522.813 478.437 523.438 480.312 523.438H526.249C529.374 523.438 531.874 521.25 532.499 518.438L542.499 467.5H576.562C594.374 467.5 609.687 465.625 621.249 461.875C633.437 457.813 644.374 451.25 654.062 442.188C662.187 434.687 669.062 426.25 674.062 417.188C679.062 408.125 682.812 398.125 684.999 387.188C690.312 360 686.249 338.75 672.812 323.125ZM624.999 381.25C622.187 395.937 616.874 406.563 609.062 412.5C601.249 418.437 588.437 421.563 571.562 421.563H551.249L565.937 345.938H592.187C611.562 345.938 619.374 350 622.499 353.437C626.874 358.437 627.812 368.125 624.999 381.25Z" fill="white"/>
<path d="M233.75 339.688C251.25 339.688 262.813 342.812 268.75 349.375C274.687 355.937 275.938 366.875 272.813 382.5C269.688 398.75 263.438 410.625 254.375 417.5C245.313 424.375 231.562 427.813 213.125 427.813H185.312L202.5 339.688H233.75ZM121.875 517.188H167.813L178.75 461.25H218.125C235.625 461.25 249.688 459.375 260.938 455.625C272.187 451.875 282.188 445.938 291.563 437.188C299.375 430 305.625 422.188 310.313 413.75C315 405.313 318.437 395.938 320.312 385.625C325.313 360.625 321.563 341.25 309.375 327.188C297.187 313.125 277.813 306.25 251.25 306.25H162.812L121.875 517.188Z" fill="#000004"/>
<path d="M354.063 250.312H399.688L388.75 306.25H429.375C455 306.25 472.5 310.625 482.188 319.687C491.875 328.75 494.688 343.125 490.938 363.125L471.875 461.25H425.625L443.75 367.812C445.938 357.187 445 350 441.563 346.25C438.125 342.5 430.313 340.313 418.75 340.313H382.188L358.75 461.25H313.125L354.063 250.312Z" fill="#000004"/>
<path d="M592.188 339.688C609.688 339.688 621.25 342.812 627.188 349.375C633.125 355.937 634.375 366.875 631.25 382.5C628.125 398.75 621.875 410.625 612.813 417.5C603.75 424.375 590 427.813 571.562 427.813H543.75L560.938 339.688H592.188ZM480.312 517.188H526.25L537.187 461.25H576.563C594.063 461.25 608.125 459.375 619.375 455.625C630.625 451.875 640.625 445.938 650 437.188C657.813 430 664.063 422.188 668.75 413.75C673.438 405.313 676.875 395.938 678.75 385.625C683.75 360.625 680 341.25 667.812 327.188C655.625 313.125 636.25 306.25 609.688 306.25H521.25L480.312 517.188Z" fill="#000004"/>
<defs>
<radialGradient id="paint0_radial_1008_24" cx="0" cy="0" r="1" gradientUnits="userSpaceOnUse" gradientTransform="translate(240.162 263.024) scale(525.297 525.297)">
<stop stop-color="white"/>
<stop offset="0.5" stop-color="#4C6B97"/>
<stop offset="1" stop-color="#231F20"/>
</radialGradient>
</defs>
</svg>
