<svg width="934" height="700" viewBox="0 0 934 700" fill="none" xmlns="http://www.w3.org/2000/svg">
<g clip-path="url(#clip0_1008_56)">
<path d="M803.655 402.338C771.093 402.509 742.793 410.351 719.096 421.944C710.401 404.725 701.707 389.381 700.172 378.13C698.467 365.002 696.422 356.99 698.467 341.305C700.513 325.621 709.719 303.288 709.549 301.583C709.378 299.878 707.503 291.866 688.75 291.695C669.997 291.525 653.801 295.275 651.926 300.219C650.05 305.163 646.47 316.415 644.084 328.008C640.844 345.056 606.577 405.918 586.972 437.798C580.664 425.353 575.209 414.442 574.015 405.748C572.311 392.621 570.265 384.608 572.311 368.924C574.356 353.239 583.562 330.906 583.392 329.201C583.221 327.496 581.346 319.484 562.593 319.313C543.84 319.143 527.644 322.893 525.769 327.837C523.894 332.781 521.848 344.374 517.927 355.626C514.006 366.878 468.487 468.485 456.553 494.739C450.416 508.208 445.131 518.948 441.38 526.279C441.38 526.279 441.21 526.79 440.698 527.642C437.459 533.95 435.584 537.36 435.584 537.36C435.584 537.36 435.584 537.36 435.584 537.53C433.027 542.133 430.299 546.396 428.935 546.396C427.912 546.396 426.037 534.121 429.276 517.414C436.095 482.124 452.291 427.228 452.121 425.353C452.121 424.33 455.189 414.783 441.551 409.839C428.253 404.895 423.48 413.078 422.286 413.078C421.093 413.078 420.24 415.977 420.24 415.977C420.24 415.977 435.072 354.262 391.94 354.262C365.004 354.262 327.839 383.756 309.427 410.351C297.834 416.659 273.114 430.127 246.69 444.618C236.631 450.244 226.232 455.869 216.514 461.154C215.832 460.473 215.15 459.62 214.468 458.938C162.301 403.19 65.8079 363.809 69.8994 288.967C71.4338 261.69 80.8103 190.088 255.214 103.142C398.76 32.3917 512.983 51.9971 532.759 95.4701C561.059 157.526 471.556 272.772 323.236 289.479C266.636 295.787 236.972 273.965 229.471 265.782C221.629 257.258 220.435 256.746 217.537 258.451C212.764 261.008 215.832 268.68 217.537 273.113C221.97 284.705 240.211 305.163 271.068 315.222C298.346 324.087 364.663 329.031 444.96 298.003C534.804 263.225 605.043 166.561 584.415 85.5821C563.786 3.40969 427.401 -23.697 298.346 22.1627C221.629 49.4399 138.433 92.4014 78.594 148.32C7.50294 214.808 -3.74888 272.601 0.854142 296.81C17.3909 382.733 135.876 438.651 183.27 480.078C180.883 481.442 178.667 482.635 176.792 483.658C153.095 495.421 62.7392 542.645 40.2355 592.596C14.6632 649.196 44.3271 689.771 63.9326 695.226C124.795 712.104 187.362 681.758 220.947 631.637C254.532 581.515 250.44 516.391 234.926 486.556C234.756 486.215 234.585 485.874 234.244 485.533C240.382 481.953 246.69 478.203 252.827 474.623C264.931 467.462 276.865 460.813 287.094 455.358C281.297 471.213 277.035 490.136 274.99 517.414C272.432 549.464 285.559 591.062 302.778 607.428C310.45 614.588 319.485 614.759 325.282 614.759C345.399 614.759 354.434 598.052 364.493 578.276C376.767 554.067 387.849 525.938 387.849 525.938C387.849 525.938 374.04 601.973 411.546 601.973C425.184 601.973 438.993 584.243 445.131 575.207C445.131 575.378 445.131 575.378 445.131 575.378C445.131 575.378 445.472 574.866 446.154 573.673C447.518 571.456 448.37 570.093 448.37 570.093C448.37 570.093 448.37 569.922 448.37 569.752C453.825 560.205 466.1 538.553 484.342 502.582C507.868 456.21 530.542 398.247 530.542 398.247C530.542 398.247 532.588 412.397 539.578 435.923C543.67 449.732 552.194 464.905 559.013 479.566C553.558 487.238 550.148 491.5 550.148 491.5C550.148 491.5 550.148 491.5 550.318 491.671C545.886 497.467 541.112 503.775 535.827 509.912C517.245 532.075 495.082 557.477 492.013 564.808C488.433 573.502 489.286 579.81 496.105 584.925C501.049 588.675 509.914 589.187 518.95 588.675C535.657 587.482 547.42 583.39 553.217 580.833C562.252 577.594 572.822 572.65 582.71 565.319C600.952 551.851 612.033 532.586 611.01 507.185C610.499 493.205 605.896 479.226 600.27 466.098C601.974 463.712 603.509 461.325 605.214 458.938C634.025 416.829 656.358 370.628 656.358 370.628C656.358 370.628 658.404 384.778 665.394 408.305C668.803 420.239 675.793 433.195 681.931 445.811C654.824 467.803 638.117 493.376 632.15 510.083C621.409 541.111 629.763 555.09 645.618 558.329C652.778 559.864 663.007 556.454 670.508 553.215C680.055 550.146 691.307 544.861 702.048 537.019C720.289 523.551 737.849 504.798 736.826 479.396C736.314 467.803 733.246 456.381 728.984 445.3C751.999 435.753 781.663 430.468 819.51 434.9C900.659 444.447 916.685 495.08 913.616 516.391C910.547 537.701 893.499 549.294 887.873 552.874C882.247 556.454 880.372 557.647 880.883 560.205C881.565 563.955 884.293 563.785 889.067 563.103C895.715 561.909 931.687 545.884 933.222 506.673C935.779 456.551 888.044 401.827 803.655 402.338ZM177.644 613.395C150.708 642.718 113.202 653.799 97.0061 644.423C79.6169 634.364 86.4362 591.062 119.51 560.034C139.627 541.111 165.54 523.551 182.759 512.811C186.68 510.424 192.476 507.014 199.466 502.752C200.659 502.07 201.341 501.729 201.341 501.729C202.705 500.877 204.069 500.024 205.433 499.172C217.537 543.497 205.944 582.538 177.644 613.395ZM373.699 480.078C364.322 502.923 344.717 561.398 332.783 558.159C322.554 555.431 316.246 511.106 330.737 467.292C338.068 445.3 353.582 419.045 362.617 408.816C377.279 392.45 393.475 386.995 397.396 393.643C402.34 402.338 379.495 465.757 373.699 480.078ZM535.486 557.477C531.565 559.523 527.815 560.887 526.11 559.864C524.917 559.182 527.815 556.454 527.815 556.454C527.815 556.454 548.102 534.632 556.115 524.744C560.718 518.948 566.173 512.129 571.97 504.457C571.97 505.139 571.97 505.991 571.97 506.673C571.97 532.757 546.738 550.317 535.486 557.477ZM660.279 529.006C657.381 526.961 657.893 520.141 667.61 498.831C671.361 490.477 680.226 476.498 695.399 463.03C697.104 468.485 698.297 473.77 698.126 478.714C697.956 511.617 674.429 523.892 660.279 529.006Z" fill="#CD6799"/>
</g>
<defs>
<clipPath id="clip0_1008_56">
<rect width="933.902" height="700" fill="white"/>
</clipPath>
</defs>
</svg>
