<svg width="800" height="800" viewBox="0 0 800 800" fill="none" xmlns="http://www.w3.org/2000/svg">
<g clip-path="url(#clip0_1008_18)">
<mask id="mask0_1008_18" style="mask-type:luminance" maskUnits="userSpaceOnUse" x="0" y="160" width="800" height="480">
<path d="M0 160H800V640H0V160Z" fill="white"/>
</mask>
<g mask="url(#mask0_1008_18)">
<path fill-rule="evenodd" clip-rule="evenodd" d="M400 160C293.333 160 226.667 213.333 200 320C240 266.667 286.667 246.667 340 260C370.43 267.6 392.178 289.689 416.252 314.119C455.467 353.926 500.859 400 600 400C706.667 400 773.333 346.667 800 240C760 293.333 713.333 313.333 660 300C629.57 292.4 607.822 270.311 583.748 245.881C544.533 206.074 499.141 160 400 160ZM200 400C93.3333 400 26.6667 453.333 0 560C40 506.667 86.6667 486.667 140 500C170.43 507.615 192.178 529.689 216.252 554.119C255.467 593.926 300.859 640 400 640C506.667 640 573.333 586.667 600 480C560 533.333 513.333 553.333 460 540C429.57 532.4 407.822 510.311 383.748 485.881C344.533 446.074 299.141 400 200 400Z" fill="#38BDF8"/>
</g>
</g>
<defs>
<clipPath id="clip0_1008_18">
<rect width="800" height="800" fill="white"/>
</clipPath>
</defs>
</svg>
