<svg width="800" height="800" viewBox="0 0 800 800" fill="none" xmlns="http://www.w3.org/2000/svg">
<path d="M747.089 153.65L418.544 741.143C411.759 753.27 394.334 753.343 387.446 741.273L52.3889 153.705C44.8889 140.55 56.1339 124.618 71.0389 127.28L399.939 186.07C402.037 186.445 404.185 186.442 406.281 186.06L728.301 127.365C743.156 124.658 754.459 140.47 747.089 153.65Z" fill="url(#paint0_linear_1008_47)"/>
<path d="M556.61 50.1725L313.477 97.8125C311.534 98.1927 309.773 99.208 308.47 100.699C307.167 102.189 306.396 104.071 306.28 106.047L291.325 358.642C290.975 364.592 296.437 369.21 302.242 367.87L369.935 352.25C376.27 350.787 381.992 356.367 380.69 362.735L360.58 461.217C359.225 467.842 365.447 473.512 371.92 471.547L413.73 458.842C420.212 456.875 426.44 462.56 425.07 469.192L393.11 623.885C391.11 633.56 403.98 638.835 409.347 630.54L412.932 625L611.05 229.62C614.367 223 608.65 215.452 601.375 216.855L531.7 230.302C525.15 231.565 519.58 225.467 521.427 219.06L566.905 61.41C568.755 54.99 563.165 48.8875 556.61 50.1725Z" fill="url(#paint1_linear_1008_47)"/>
<defs>
<linearGradient id="paint0_linear_1008_47" x1="44.2072" y1="106.281" x2="453.086" y2="661.572" gradientUnits="userSpaceOnUse">
<stop stop-color="#41D1FF"/>
<stop offset="1" stop-color="#BD34FE"/>
</linearGradient>
<linearGradient id="paint1_linear_1008_47" x1="381.044" y1="63.1049" x2="455.008" y2="570.492" gradientUnits="userSpaceOnUse">
<stop stop-color="#FFEA83"/>
<stop offset="0.0833" stop-color="#FFDD35"/>
<stop offset="1" stop-color="#FFA800"/>
</linearGradient>
</defs>
</svg>
